<svg width="37" height="37" viewBox="0 0 37 37" fill="none" xmlns="http://www.w3.org/2000/svg">
<circle cx="18.7549" cy="18.4951" r="18.2451" fill="#F2F2F2"/>
<path d="M18.7548 18.4399C13.4248 18.4399 9.09485 20.6699 9.09485 23.4099V26.9999H28.4148V23.4099C28.4148 20.6699 24.0748 18.4399 18.7548 18.4399ZM26.8448 25.3099H10.6549V23.4099C10.6549 21.6399 14.3648 20.1399 18.7448 20.1399C23.1248 20.1399 26.8348 21.6399 26.8348 23.4099V25.3099H26.8448Z" fill="#1A1A1A"/>
<path d="M18.7549 17.13C21.2849 17.13 23.3449 15.07 23.3449 12.54C23.3449 10.01 21.2849 7.94995 18.7549 7.94995C16.2249 7.94995 14.1649 10.01 14.1649 12.54C14.1649 15.07 16.2249 17.13 18.7549 17.13ZM18.7549 9.51995C20.4249 9.51995 21.7749 10.87 21.7749 12.54C21.7749 14.21 20.4249 15.56 18.7549 15.56C17.0849 15.56 15.7349 14.21 15.7349 12.54C15.7349 10.87 17.0849 9.51995 18.7549 9.51995Z" fill="#1A1A1A"/>
</svg>
