<svg width="182" height="31" viewBox="0 0 182 31" fill="none" xmlns="http://www.w3.org/2000/svg">
<path d="M73.9245 19.1292V11.0384H83.9511V7.51086H73.9245V0.939453H70.5464V19.1292C70.5464 25.4828 75.7801 30.6538 82.2108 30.6538H84.3484V27.3162H82.2108C77.6435 27.3188 73.9245 23.6443 73.9245 19.1292Z" fill="#1A1A1A"/>
<path d="M54.7376 10.9342V7.49023H51.1672V30.5952H54.7376V17.8779C55.3476 13.9553 58.7897 10.9393 62.929 10.9393H67.2939V7.60419H62.929C59.738 7.60419 56.8444 8.87795 54.7376 10.9342Z" fill="#1A1A1A"/>
<path d="M43.7166 11.0963C41.5969 8.94379 38.6366 7.60419 35.3636 7.60419C28.933 7.60419 23.6992 12.7752 23.6992 19.1288C23.6992 25.4825 28.933 30.6535 35.3636 30.6535C38.6366 30.6535 41.5944 29.3139 43.7166 27.1614V30.5952H47.2869V7.49023H43.7166V11.0963V11.0963ZM35.3636 27.3184C30.7937 27.3184 27.0773 23.6465 27.0773 19.1314C27.0773 14.6162 30.7937 10.9443 35.3636 10.9443C39.9335 10.9443 43.6499 14.6162 43.6499 19.1314C43.6499 23.6465 39.9335 27.3184 35.3636 27.3184Z" fill="#1A1A1A"/>
<path d="M125.539 11.0963C123.419 8.94379 120.459 7.60419 117.186 7.60419C110.755 7.60419 105.522 12.7752 105.522 19.1288C105.522 25.4825 110.755 30.6535 117.186 30.6535C120.459 30.6535 123.417 29.3139 125.539 27.1614V30.5952H129.109V7.49023H125.539V11.0963ZM117.186 27.3184C112.616 27.3184 108.9 23.6465 108.9 19.1314C108.9 14.6162 112.616 10.9443 117.186 10.9443C121.756 10.9443 125.472 14.6162 125.472 19.1314C125.472 23.6465 121.756 27.3184 117.186 27.3184Z" fill="#1A1A1A"/>
<path d="M151.436 11.0966C149.316 8.94416 146.356 7.60455 143.083 7.60455C136.652 7.60455 131.418 12.7756 131.418 19.1292C131.418 25.4828 136.652 30.6538 143.083 30.6538C146.356 30.6538 149.314 29.3142 151.436 27.1618V30.5956H155.006V0.939453H151.436V11.0966ZM143.085 27.3188C138.516 27.3188 134.799 23.6469 134.799 19.1317C134.799 14.6166 138.516 10.9447 143.085 10.9447C147.655 10.9447 151.372 14.6166 151.372 19.1317C151.372 23.6469 147.655 27.3188 143.085 27.3188Z" fill="#1A1A1A"/>
<path d="M105.752 7.60419H101.388C98.1991 7.60419 95.3054 8.87542 93.196 10.9342V7.49023H89.6257V30.5952H93.196V17.8779C93.8086 13.9553 97.2482 10.9418 101.388 10.9418H105.752V7.60419Z" fill="#1A1A1A"/>
<path d="M181.275 19.1291C181.275 12.7755 176.041 7.60449 169.61 7.60449C169.516 7.60449 169.423 7.60956 169.328 7.61209V7.60449C162.898 7.60449 157.664 12.7755 157.664 19.1291C157.664 25.4574 162.854 30.6107 169.249 30.6538C169.387 30.6639 169.644 30.6816 169.987 30.6816C171.653 30.6816 175.354 30.3069 177.338 27.1946L174.48 25.4169C173.055 27.653 169.541 27.3314 169.513 27.3288L169.328 27.3187C165.338 27.3187 161.996 24.5154 161.214 20.7979H181.275V19.1291ZM161.496 17.4629C162.278 13.7454 165.62 10.9421 169.61 10.9421C173.601 10.9421 176.943 13.7454 177.725 17.4629H161.496Z" fill="#1A1A1A"/>
<path d="M24.1962 7.4906H19.2573L9.53309 17.2806H9.02048H4.48902V0.939453H0.918701V30.5956H4.48902V20.9044H9.54334L19.2573 30.6842H24.1962L12.6344 19.0861L24.1962 7.4906Z" fill="#1A1A1A"/>
</svg>
