<svg width="58" height="57" viewBox="0 0 58 57" fill="none" xmlns="http://www.w3.org/2000/svg">
<path d="M50.7744 40.9217L50.7719 40.9242C50.0491 40.5216 49.2341 40.0683 48.4318 39.6226C48.4113 39.6099 48.3883 39.5998 48.3678 39.5871C45.023 37.7588 40.8683 35.4873 40.4326 35.2416C39.697 34.8263 39.5637 34.5655 38.3821 32.5903C37.198 30.6151 34.2531 26.9002 33.174 25.834C32.3616 25.0313 30.9339 24.0791 30.1343 23.5853C29.4525 23.1422 29.0732 21.7342 28.8963 20.8605C28.863 20.6326 28.8246 20.3997 28.7759 20.1641C28.7733 20.149 28.7733 20.1414 28.7733 20.1414H28.7707C28.6016 19.3234 28.3196 18.4827 27.825 17.8091H27.8275C27.8275 17.8091 26.0872 15.2058 22.1196 15.5072C21.4609 15.5578 20.7407 15.6845 19.9539 15.9225L20.3178 18.0395L20.3742 18.3637L17.8752 19.7412C17.8752 19.7412 18.4904 20.2654 19.0953 21.134C19.5463 21.7823 19.9898 22.6256 20.1666 23.5828C20.1871 24.2868 20.2435 25.2795 20.364 26.69C20.733 30.9772 22.4682 33.4994 24.6519 35.6291C25.4388 36.3964 26.4358 36.9282 27.5225 37.2903C27.5687 37.5207 27.7148 37.8778 28.1659 38.0956L22.276 42.6107H23.5729L28.8399 38.2678C29.3756 38.3007 29.6678 38.0551 29.8267 37.8094C31.098 37.9842 32.3872 38.0095 33.538 37.969C34.189 37.9462 34.7529 37.8981 35.2373 37.8398C35.3783 38.0728 35.5987 38.3589 35.8806 38.4172C35.8883 38.4197 35.8986 38.4197 35.9062 38.4223L33.5303 42.8538L34.8349 42.6994L37.0417 38.3514C37.4184 38.207 37.7106 37.9031 37.6389 37.2928L44.2028 40.8052V40.8027L50.572 44.1225L52.8633 43.6566C52.5916 43.5249 52.32 43.3932 52.0508 43.2565C52.0483 43.2565 52.0483 43.2539 52.0457 43.2539C51.7766 43.1197 51.51 42.983 51.2435 42.8437C50.7283 42.5753 50.2183 42.3018 49.7108 42.0182C49.6928 42.008 49.6775 42.0004 49.6595 41.9903C49.4494 41.8738 49.639 41.5548 49.8466 41.6712C49.8876 41.694 49.9312 41.7168 49.9722 41.7396C50.5822 42.0789 51.1999 42.4081 51.8202 42.7247C52.0893 42.864 52.361 42.9982 52.6352 43.1324C52.9095 43.2666 53.1837 43.4008 53.458 43.53L55.0675 43.2033C55.0675 43.2033 54.9445 43.1375 54.7267 43.0159L50.7744 40.9217ZM23.1807 18.1332C22.8322 18.1332 22.5502 17.8547 22.5502 17.5103C22.5502 17.4115 22.5759 17.3203 22.6169 17.2368C22.7194 17.0291 22.9321 16.8873 23.1807 16.8873C23.4473 16.8873 23.6754 17.0519 23.7677 17.2849C23.7959 17.3558 23.8112 17.4318 23.8112 17.5103C23.8138 17.8547 23.5293 18.1332 23.1807 18.1332Z" fill="#1A1A1A"/>
<path d="M31.9771 26.5887C31.9771 26.5887 30.8186 25.444 30.0036 25.3934C29.1886 25.3427 28.453 25.4719 28.3197 26.5887C28.1864 27.7054 30.6341 28.7183 31.8439 29.2907C33.0536 29.863 34.6863 29.9085 31.9771 26.5887Z" fill="white"/>
<path d="M23.865 33.7094C23.865 33.7094 26.364 34.0462 27.4686 33.4765C28.5733 32.9041 29.0731 32.2027 29.2038 31.6582C29.3345 31.1138 29.4934 30.8276 29.4934 30.8276C29.4934 30.8276 30.7288 31.7621 31.4388 31.9444C32.1487 32.1267 32.1487 32.1267 32.1487 32.1267C32.1487 32.1267 32.9125 34.1019 33.8583 34.9604C34.8041 35.8189 35.8831 36.3886 36.1189 36.4418C36.3547 36.495 34.8271 37.3762 32.7767 37.3762C30.7263 37.3762 26.5485 37.399 23.865 33.7094Z" fill="white"/>
<path d="M19.3978 15.9224L15.3892 16.4364L15.3943 16.444L19.7822 17.852L19.3978 15.9224Z" fill="#1A1A1A"/>
<path d="M14.5459 21.0707L11.9956 20.8479C11.6599 20.8175 11.4113 20.5263 11.442 20.1945L11.8085 16.115C11.8393 15.7832 12.134 15.5376 12.4698 15.568L15.02 15.7908C15.3558 15.8212 15.6044 16.1124 15.5736 16.4442L15.2097 20.5263C15.1764 20.8555 14.8816 21.1011 14.5459 21.0707Z" fill="white"/>
<path d="M31.3799 26.0744C31.3799 26.0744 33.6764 28.0167 34.7298 30.4174C35.7832 32.818 28.5631 28.4523 28.3145 27.2064C28.0659 25.9605 29.027 25.4971 29.027 25.4971" fill="white"/>
<path d="M14.3358 42.9652C15.3815 42.9779 17.6447 42.988 22.576 42.988C26.946 42.988 33.41 42.9804 42.9778 42.9576C43.2008 42.7449 43.4187 42.5246 43.634 42.3018C33.5484 42.3245 15.2124 42.3524 13.6694 42.3094C13.8847 42.5297 14.1077 42.75 14.3358 42.9652Z" fill="#1A1A1A"/>
<path d="M44.0312 42.8386C44.1132 42.7551 44.1927 42.674 44.2747 42.5879C44.4823 42.3676 44.6796 42.1448 44.877 41.9194C44.6694 41.813 44.4669 41.7067 44.2747 41.6079C44.1158 41.7877 43.9569 41.965 43.7903 42.1422C43.739 42.1954 43.6877 42.2486 43.6365 42.3018C43.7698 42.3018 43.903 42.3018 44.0337 42.3018L44.0312 42.8386Z" fill="black"/>
<path d="M51.5305 27.9483C51.4665 26.8746 51.0794 25.892 50.3054 24.8563C49.9414 24.3676 49.5647 23.8611 49.4186 23.3344C48.683 20.6602 47.6911 18.4394 46.3839 16.5477C44.6488 14.0331 42.4676 11.9591 39.902 10.384C38.1515 9.30779 36.4573 8.56582 34.7247 8.11759C33.4765 7.79599 32.5922 7.36802 31.8541 6.73747C31.2338 6.20568 30.4162 5.86888 29.4192 5.73214C27.8455 5.51942 26.3922 5.94232 25.103 6.99324C24.5468 7.44653 24.0573 7.70989 23.519 7.84917C22.4887 8.11506 21.5968 8.39362 20.7868 8.7051C18.9466 9.40908 17.1909 10.4018 15.5711 11.6553C13.577 13.1975 11.8931 15.041 10.5603 17.1327C9.44794 18.88 8.68416 20.5767 8.22794 22.3189C7.90756 23.5395 7.48209 24.4005 6.84389 25.1095C6.54145 25.4489 6.35179 25.8844 6.18263 26.2769C5.63414 27.5507 5.60851 28.8169 6.1083 30.04C6.3441 30.6148 6.65423 31.1643 7.00793 31.6278C7.58718 32.3875 7.92293 33.0383 8.09466 33.7372C8.29714 34.5577 8.57907 35.406 8.92765 36.2518C10.3886 39.8021 12.762 42.8156 15.9863 45.2011C18.1751 46.8218 20.5792 47.9537 23.1269 48.564C23.883 48.7463 24.5776 49.0958 25.244 49.6377C26.1513 50.3721 27.2944 50.8482 28.153 50.8482C28.171 50.8482 28.1863 50.8482 28.2043 50.8482C29.8011 50.8482 31.1082 50.4354 32.0873 49.6251C32.7255 49.0958 33.4047 48.7489 34.1659 48.564C34.963 48.3715 35.7448 48.1259 36.4932 47.8372C39.292 46.7534 41.7884 45.1074 43.9157 42.9473C43.5979 42.9473 43.2852 42.9498 42.9751 42.9498C41.0169 44.8187 38.7589 46.2545 36.2497 47.2269C35.5295 47.5055 34.7759 47.741 34.007 47.9284C33.1458 48.1386 32.3769 48.5286 31.6593 49.1236C30.7904 49.8428 29.6601 50.1948 28.2043 50.1948C28.1863 50.1948 28.171 50.1948 28.153 50.1948C27.5661 50.1948 26.5691 49.8656 25.6643 49.1312C24.9185 48.526 24.1393 48.131 23.2832 47.9259C20.8227 47.3358 18.5006 46.2419 16.3835 44.6743C15.6556 44.135 14.9713 43.5601 14.3331 42.9549C13.4642 42.9448 13.4335 42.9321 13.4104 42.9245L13.5309 42.6181L13.577 42.3041C13.5924 42.3066 13.6257 42.3066 13.6693 42.3091C11.8931 40.4707 10.5116 38.3638 9.54278 36.0138C9.20702 35.1958 8.93534 34.3804 8.74054 33.5903C8.54575 32.8002 8.17411 32.076 7.53848 31.2429C7.2181 30.8225 6.93616 30.3261 6.72343 29.802C6.29028 28.746 6.31334 27.6495 6.7952 26.5327C6.94898 26.1782 7.10789 25.811 7.33856 25.5502C8.04852 24.7575 8.52012 23.813 8.8687 22.4886C9.30698 20.8122 10.0451 19.1763 11.1216 17.4847C12.4108 15.4563 14.046 13.671 15.9786 12.1744C17.5472 10.9589 19.2465 9.99912 21.0252 9.31792C21.8121 9.01657 22.6809 8.74561 23.6856 8.48478C24.3136 8.32271 24.8954 8.0087 25.5233 7.49971C26.4845 6.71721 27.5046 6.3323 28.6246 6.3323C28.8553 6.3323 29.0885 6.34749 29.3269 6.38041C30.1932 6.4969 30.898 6.78306 31.4183 7.23128C32.236 7.93273 33.2048 8.40122 34.5555 8.75068C36.224 9.18117 37.8567 9.89782 39.5509 10.9386C42.037 12.4656 44.1515 14.4788 45.8354 16.9149C47.099 18.7483 48.0627 20.9033 48.7778 23.504C48.9547 24.1473 49.3878 24.7297 49.7723 25.2438C50.4643 26.1706 50.8103 27.0417 50.8667 27.9837C50.9359 29.1689 50.6104 30.2147 49.8953 31.0934C49.2315 31.9089 48.7829 32.7876 48.519 33.7853C48.1319 35.2439 47.5681 36.6443 46.835 37.9789C47.0221 38.0827 47.2144 38.189 47.4143 38.3005C48.1755 36.9178 48.7599 35.4668 49.1623 33.9524C49.4032 33.0459 49.8133 32.2457 50.4156 31.5037C51.2332 30.4983 51.61 29.3031 51.5305 27.9483Z" fill="#1A1A1A"/>
<path d="M42.9778 42.9576C43.2879 42.9576 43.6032 42.9551 43.9184 42.9551C43.9569 42.9171 43.9953 42.8766 44.0312 42.8386L44.0286 42.3018C43.8979 42.3018 43.7646 42.3018 43.6314 42.3018C43.4186 42.5246 43.2008 42.7449 42.9778 42.9576Z" fill="black"/>
<path d="M13.5335 42.6284L13.4131 42.9348C13.4362 42.945 13.4669 42.9551 14.3358 42.9652C14.1077 42.75 13.8847 42.5322 13.6694 42.3068C13.6258 42.3068 13.5925 42.3043 13.5771 42.3018L13.5335 42.6284Z" fill="black"/>
<path d="M57.008 27.8357C56.9234 26.3948 56.3903 25.0349 55.3728 23.6675C54.9806 23.1408 54.5756 22.5988 54.4424 22.1152C53.5325 18.8079 52.3022 16.0553 50.6773 13.7002C48.5243 10.5804 45.8177 8.00501 42.6319 6.04752C40.4533 4.70791 38.3388 3.78615 36.173 3.22397C34.8043 2.86944 33.8458 2.41362 33.0615 1.74002C32.19 0.992984 31.0572 0.519437 29.6936 0.334577C27.5586 0.0458913 25.5928 0.615666 23.8499 2.03377C23.2783 2.49719 22.7914 2.76562 22.2685 2.89983C20.9998 3.22903 19.8951 3.57343 18.8904 3.95581C16.5991 4.832 14.4153 6.06524 12.4008 7.62516C9.92746 9.5396 7.83601 11.8263 6.18285 14.4245C4.79881 16.5997 3.84792 18.7168 3.27636 20.8971C2.92779 22.2291 2.47157 23.1585 1.79749 23.9106C1.34127 24.4171 1.08753 25.0071 0.856851 25.5414C0.116132 27.2609 0.0828127 29.0462 0.762019 30.7074C1.07215 31.4645 1.4848 32.1913 1.95127 32.8067C2.57409 33.6272 2.93292 34.3159 3.11233 35.0402C3.36607 36.0658 3.71721 37.1243 4.15036 38.1803C5.96499 42.5941 8.91506 46.3344 12.916 49.2972C15.6405 51.3155 18.6341 52.7235 21.8123 53.4857C22.6068 53.6756 23.3091 54.0352 24.0216 54.6126C25.275 55.6281 26.8205 56.2586 28.0482 56.2586C28.0712 56.2586 28.0917 56.2586 28.1148 56.2586C30.2396 56.2586 31.9927 55.699 33.328 54.5923C33.9944 54.0403 34.7018 53.6782 35.4887 53.4882C36.4831 53.2477 37.4597 52.9412 38.3926 52.5791C42.068 51.156 45.3205 48.9579 48.0578 46.0482C48.5833 45.4886 49.0805 44.9163 49.547 44.3288C48.9088 43.9971 48.1219 43.5919 47.3017 43.1664C46.9634 43.5767 46.6097 43.9793 46.2381 44.3744C43.7545 47.0105 40.8095 49.0035 37.4853 50.2899C36.6549 50.6115 35.7834 50.885 34.8966 51.1002C33.733 51.3839 32.6975 51.9081 31.7313 52.7083C30.8342 53.4528 29.6373 53.8098 28.0584 53.7997C27.5048 53.7997 26.4821 53.4249 25.6005 52.7108C24.6009 51.9005 23.5552 51.3737 22.3992 51.0977C19.5517 50.414 16.863 49.1478 14.4102 47.3321C10.7758 44.6403 8.10001 41.252 6.45966 37.256C6.07008 36.3089 5.75739 35.3669 5.53184 34.4552C5.26785 33.3916 4.77831 32.4268 3.94275 31.3278C3.60187 30.8796 3.30199 30.3478 3.07132 29.7856C2.63304 28.7144 2.65867 27.6407 3.15334 26.491C3.30968 26.1264 3.47372 25.7491 3.66082 25.5389C4.60915 24.4829 5.23196 23.2421 5.68562 21.5125C6.19311 19.5803 7.04404 17.6887 8.28967 15.7312C9.78905 13.3837 11.6883 11.3072 13.9361 9.56746C15.7584 8.15695 17.7268 7.04272 19.7875 6.25517C20.7025 5.90571 21.72 5.58663 22.8965 5.28275C23.773 5.05738 24.5778 4.62941 25.4287 3.93555C26.4258 3.12267 27.4817 2.72257 28.6351 2.72257C28.8709 2.72257 29.1093 2.74029 29.3528 2.77321C30.2293 2.89223 30.929 3.17079 31.4263 3.59875C32.513 4.53065 33.7817 5.14854 35.5374 5.60436C37.4597 6.1007 39.3486 6.9313 41.3119 8.13669C44.203 9.91186 46.661 12.2517 48.6166 15.0854C50.0826 17.21 51.2027 19.7196 52.0357 22.7584C52.2894 23.6827 52.861 24.4474 53.3659 25.1286C54.0964 26.1087 54.4629 27.0127 54.5193 27.9775C54.591 29.2082 54.2706 30.244 53.5376 31.1455C52.6636 32.2192 52.0716 33.379 51.723 34.6958C51.2693 36.4051 50.6081 38.0435 49.7443 39.6035C50.5312 40.0415 51.2873 40.4619 51.9127 40.8088C52.8815 39.0666 53.6222 37.2332 54.1297 35.3187C54.3911 34.3311 54.8191 33.4955 55.4778 32.6877C56.603 31.3075 57.1182 29.6742 57.008 27.8357Z" fill="#1A1A1A"/>
<path d="M50.6208 44.1477L50.5824 44.1274L50.4824 44.1477H50.6208Z" fill="white"/>
<path d="M15.0969 22.438L11.2113 22.0987C10.7013 22.0531 10.3271 21.61 10.3706 21.1086L10.9114 15.0537C10.9576 14.5498 11.4061 14.1801 11.9136 14.2231L15.7992 14.5625C16.3092 14.608 16.6834 15.0512 16.6398 15.5526L16.099 21.6074C16.0555 22.1114 15.6044 22.4836 15.0969 22.438Z" fill="#1A1A1A"/>
<path d="M14.6842 21.3162L11.8161 21.0655C11.5368 21.0401 11.3317 20.797 11.3548 20.5235L11.7777 15.8033C11.8033 15.5272 12.0494 15.3247 12.3262 15.3475L15.1942 15.5982C15.4736 15.6235 15.6787 15.8666 15.6556 16.1401L15.2327 20.8603C15.2096 21.1364 14.9636 21.339 14.6842 21.3162Z" fill="white"/>
<path d="M15.4764 22.7143C15.4508 22.7143 15.4251 22.7143 15.3995 22.7117L10.8655 22.3167C10.399 22.2762 10.0556 21.8685 10.0966 21.4101L10.6938 14.7121C10.7348 14.2512 11.1449 13.9093 11.6139 13.9524L16.1479 14.3474C16.6144 14.388 16.9578 14.7957 16.9168 15.254L16.3197 21.952C16.2991 22.1749 16.1941 22.3775 16.0198 22.5193C15.866 22.6459 15.6738 22.7143 15.4764 22.7143ZM15.4431 22.223C15.5379 22.2306 15.6276 22.2027 15.6994 22.1445C15.7712 22.0862 15.8147 22.0027 15.8224 21.909L16.4222 15.211C16.4401 15.021 16.2966 14.8539 16.1044 14.8362L11.5703 14.4411C11.3807 14.4234 11.2064 14.5652 11.191 14.7551L10.5938 21.4532C10.5759 21.6431 10.7194 21.8102 10.9116 21.8279L15.4431 22.223Z" fill="white"/>
<path d="M19.667 18.2367L15.2227 16.811L17.6396 19.3738L19.667 18.2367Z" fill="#1A1A1A"/>
</svg>
