<svg width="18" height="18" viewBox="0 0 18 18" fill="none" xmlns="http://www.w3.org/2000/svg">
<path d="M12.05 11.04C12.97 9.9 13.48 8.47 13.48 6.98C13.48 3.41 10.57 0.5 6.98998 0.5C3.41998 0.5 0.509979 3.41 0.509979 6.98C0.509979 10.56 3.41998 13.46 6.98998 13.46C8.46998 13.46 9.89998 12.96 11.04 12.04L16.5 17.5L17.5 16.5L12.05 11.04ZM12.07 6.98C12.07 9.78 9.79998 12.05 6.99998 12.05C4.19998 12.05 1.91998 9.78 1.91998 6.98C1.91998 4.18 4.19998 1.91 6.98998 1.91C9.77998 1.91 12.07 4.19 12.07 6.98Z" fill="black"/>
</svg>
